<?xml version="1.0" standalone="no"?>
<!DOCTYPE svg PUBLIC "-//W3C//DTD SVG 20010904//EN"
 "http://www.w3.org/TR/2001/REC-SVG-20010904/DTD/svg10.dtd">
<svg version="1.0" xmlns="http://www.w3.org/2000/svg"
 width="736.000000pt" height="736.000000pt" viewBox="0 0 736.000000 736.000000"
 preserveAspectRatio="xMidYMid meet">
<metadata>
Created by potrace 1.14, written by Peter Selinger 2001-2017
</metadata>
<g transform="translate(0.000000,736.000000) scale(0.100000,-0.100000)"
fill="#000000" stroke="none">
<path d="M3487 6764 c-1 -1 -46 -5 -100 -9 -54 -3 -107 -8 -116 -10 -10 -2
-42 -6 -72 -10 -45 -5 -217 -37 -269 -50 -8 -2 -45 -10 -82 -19 -85 -20 -289
-88 -393 -131 -405 -168 -731 -387 -1040 -699 -118 -118 -315 -353 -315 -374
0 -6 -3 -12 -7 -14 -12 -5 -63 -75 -63 -86 0 -6 -4 -12 -8 -14 -29 -11 -221
-379 -285 -543 -19 -49 -38 -99 -42 -110 -5 -11 -9 -22 -10 -25 0 -3 -11 -34
-22 -70 -26 -76 -80 -291 -88 -347 -3 -21 -8 -44 -11 -52 -2 -8 -7 -29 -9 -48
-3 -18 -8 -50 -11 -70 -12 -77 -13 -90 -20 -193 -14 -199 -6 -498 15 -635 5
-33 13 -80 16 -105 4 -25 8 -56 10 -70 2 -14 13 -63 25 -110 12 -47 22 -92 24
-100 44 -188 149 -463 251 -658 64 -120 163 -285 187 -312 10 -11 18 -22 18
-25 0 -3 28 -43 62 -88 222 -296 537 -586 849 -782 228 -144 581 -299 819
-359 36 -10 79 -21 95 -26 17 -5 46 -12 65 -15 19 -3 42 -8 50 -10 8 -2 29 -7
45 -10 17 -2 41 -7 54 -10 13 -2 49 -7 80 -11 31 -3 65 -8 76 -10 44 -9 209
-17 365 -18 149 0 376 11 391 19 3 2 23 6 45 9 22 2 69 10 105 16 35 7 73 14
84 15 87 13 401 103 470 135 11 5 45 19 75 31 30 11 64 25 75 29 11 4 24 8 29
8 5 0 12 4 15 9 3 4 56 33 116 62 132 66 327 179 345 202 3 3 14 11 25 17 28
14 208 155 284 222 340 298 639 710 806 1110 15 36 33 79 40 95 28 66 109 320
120 376 2 11 6 28 9 37 3 9 7 28 10 42 2 14 11 63 20 110 23 119 32 184 43
315 13 168 6 529 -12 625 -2 12 -7 48 -11 79 -3 31 -12 86 -20 123 -7 37 -16
82 -19 100 -31 178 -158 530 -272 752 -58 111 -152 270 -164 274 -5 2 -9 8 -9
14 0 17 -148 215 -241 323 -538 622 -1286 1001 -2114 1071 -72 6 -383 12 -388
8z"/>
<path d="M5 400 c3 -5 8 -10 11 -10 2 0 4 5 4 10 0 6 -5 10 -11 10 -5 0 -7 -4
-4 -10z"/>
</g>
</svg>
